<?xml version="1.0" encoding="UTF-8" standalone="no"?>
<!-- Created with Inkscape (http://www.inkscape.org/) -->

<svg
   xmlns:dc="http://purl.org/dc/elements/1.1/"
   xmlns:cc="http://creativecommons.org/ns#"
   xmlns:rdf="http://www.w3.org/1999/02/22-rdf-syntax-ns#"
   xmlns:svg="http://www.w3.org/2000/svg"
   xmlns="http://www.w3.org/2000/svg"
   xmlns:sodipodi="http://sodipodi.sourceforge.net/DTD/sodipodi-0.dtd"
   xmlns:inkscape="http://www.inkscape.org/namespaces/inkscape"
   height="294.83676"
   width="350"
   viewBox="0 0 350 294.83676"
   id="svg2"
   version="1.1"
   inkscape:version="0.92.1 r15371"
   sodipodi:docname="logotipo no bg.svg"
   inkscape:export-filename="/home/erikprogramador/Dropbox/Sales City/logotipo.png"
   inkscape:export-xdpi="99"
   inkscape:export-ydpi="99">
  <defs
     id="defs8" />
  <sodipodi:namedview
     pagecolor="#ffffff"
     bordercolor="#666666"
     borderopacity="1"
     objecttolerance="10"
     gridtolerance="10"
     guidetolerance="10"
     inkscape:pageopacity="0"
     inkscape:pageshadow="2"
     inkscape:window-width="1366"
     inkscape:window-height="719"
     id="namedview6"
     showgrid="false"
     showborder="true"
     units="px"
     inkscape:zoom="0.9629055"
     inkscape:cx="61.0097"
     inkscape:cy="132.68936"
     inkscape:window-x="0"
     inkscape:window-y="25"
     inkscape:window-maximized="1"
     inkscape:current-layer="svg2"
     inkscape:object-nodes="false"
     showguides="true"
     inkscape:guide-bbox="true"
     fit-margin-top="0"
     fit-margin-left="0"
     fit-margin-right="0"
     fit-margin-bottom="0"
     inkscape:showpageshadow="false" />
  <metadata
     id="metadata4">
    <rdf:RDF>
      <cc:Work
         rdf:about="">
        <dc:format>image/svg+xml</dc:format>
        <dc:type
           rdf:resource="http://purl.org/dc/dcmitype/StillImage" />
        <dc:title></dc:title>
      </cc:Work>
    </rdf:RDF>
  </metadata>
  <g
     id="g3296"
     transform="matrix(16.47816,0,0,16.47816,-972.25563,63.850972)">
    <path
       inkscape:connector-curvature="0"
       id="path3260"
       d="m 76.418697,-3.8748844 c -2.21462,0 -4.606878,0.5939567 -7.173828,1.7851562 -2.56695,1.19120006 -4.765,2.60971626 -6.59375,4.2539063 -2.43273,2.19784 -3.648439,4.4217415 -3.648437,6.6699215 0,1.15764 0.343369,2.1466504 1.03125,2.9687504 1.258299,1.47641 3.145489,2.214844 5.662109,2.214844 1.96296,0 4.070189,-0.427553 6.318359,-1.283203 1.85923,-0.721487 3.357218,-1.621326 4.539063,-2.675781 0.171176,-0.1576074 0.550158,-0.5158144 0.740234,-0.7226564 0.04433,-0.075887 0.08008,-0.14754 0.08008,-0.201172 0,-0.0839 -0.0411,-0.125 -0.125,-0.125 -0.0168,0 -0.0598,0.015328 -0.126953,0.048828 -1.27509,1.0402004 -2.549139,1.8216974 -3.824219,2.3417974 -0.17766,0.0734 -0.372517,0.139564 -0.560547,0.208984 V 6.6407406 L 71.360105,6.3301936 V 5.0880062 l -0.115234,-0.025391 c 0.36573,-0.10303 0.758164,-0.2201725 1.246094,-0.3828125 1.17442,-0.40266 2.340407,-0.897165 3.498047,-1.484375 1.17443,-0.58721 2.173993,-1.2911813 2.996093,-2.1132813 0.83887,-0.83887004 1.257813,-1.67009754 1.257813,-2.4921874 0,-0.5872111 -0.218077,-1.0817151 -0.654297,-1.4843751 -0.75498,-0.65432 -1.810952,-0.9804687 -3.169922,-0.9804687 z m -1.183594,0.7539062 c 0.60399,0 1.156837,0.1014046 1.660157,0.3027344 0.52011,0.20133 0.78125,0.5619213 0.78125,1.0820313 0,0.80530996 -0.662862,1.73598866054 -1.988282,2.7929687 -1.32541,1.05698 -2.785056,1.9465388 -4.378906,2.6679688 -0.53326,0.23827 -1.006152,0.4223781 -1.451172,0.5800781 v -1.125 L 64.715572,2.0216 64.424556,2.162225 v 10.570313 c -0.13504,-0.0223 -0.273848,-0.03665 -0.40625,-0.06445 V 2.3594936 L 63.729244,2.5020717 V 12.597775 c -0.13769,-0.0335 -0.2715,-0.07569 -0.40625,-0.115234 V 2.6993374 l -0.291016,0.140625 V 12.40051 c -0.13796,-0.0456 -0.27146,-0.100154 -0.40625,-0.152344 V 3.037228 l -0.195312,0.095703 c 0.19247,-0.19657 0.386669,-0.3933769 0.599609,-0.5917969 1.64419,-1.52675 3.598332,-2.85248254 5.863281,-3.9765625 2.264961,-1.12409 4.378837,-1.6855469 6.341797,-1.6855469 z m -12.90039,6.3496094 v 4.0625004 l -0.69336,-0.15625 -0.15625,0.076172 v 4.4902344 c -0.0772,-0.0503 -0.147783,-0.10754 -0.220703,-0.16211 V 7.3165216 l -0.15625,0.076172 v 4.0273444 c -0.0767,-0.0633 -0.149203,-0.130679 -0.220703,-0.199219 V 7.5001156 l -0.15625,0.076172 v 3.4882814 c -0.0773,-0.0828 -0.150173,-0.170178 -0.220703,-0.259765 V 7.6837096 l -0.15625,0.076172 v 2.8417964 c -0.0136,-0.0196 -0.02967,-0.03674 -0.04297,-0.05664 -0.40266,-0.6039804 -0.603515,-1.3099204 -0.603515,-2.1152344 0,-1.654463 0.879053,-3.3878124 2.626954,-5.2011724 z m 4.630859,1.0390625 v 0.5136719 c -0.002,0.01 -0.0098,0.014091 -0.0098,0.025391 0,0.009 0.0088,0.015138 0.0098,0.023437 v 8.0156254 c -0.11423,0.007 -0.222118,0.01122 -0.330078,0.01563 V 4.4259017 l 0.330078,-0.1582031 z m -0.564453,0.2734375 v 8.3320318 c -0.079,0.002 -0.176583,0.01172 -0.251953,0.01172 -0.0261,0 -0.05017,-0.0039 -0.07617,-0.0039 V 4.7012955 l 0.328125,-0.1601563 z m -0.5625,0.2734375 v 8.0546883 c -0.11074,-0.003 -0.218945,-0.01128 -0.328125,-0.01758 V 4.974724 l 0.328125,-0.1601563 z m 3.349609,1.1621094 v 6.5917969 c -0.0897,0.0174 -0.174575,0.03779 -0.265625,0.05469 V 6.1055864 L 69.188228,5.9766801 Z M 68.73315,6.1973816 v 6.4628904 c -0.0959,0.0141 -0.172565,0.01855 -0.265625,0.03125 V 6.3262876 l 0.126953,-0.0625 z m -0.455078,0.220703 V 12.71496 c -0.0911,0.0118 -0.177365,0.02075 -0.265625,0.03125 V 6.5469906 Z"
       style="opacity:1;fill:#1a1a1a;fill-opacity:1;stroke:none;stroke-width:5.24300003;stroke-linecap:round;stroke-linejoin:round;stroke-miterlimit:4;stroke-dasharray:none;stroke-opacity:1" />
  </g>
</svg>
