<?xml version="1.0" encoding="UTF-8" standalone="no"?>
<!-- Created with Inkscape (http://www.inkscape.org/) -->

<svg
   xmlns:dc="http://purl.org/dc/elements/1.1/"
   xmlns:cc="http://creativecommons.org/ns#"
   xmlns:rdf="http://www.w3.org/1999/02/22-rdf-syntax-ns#"
   xmlns:svg="http://www.w3.org/2000/svg"
   xmlns="http://www.w3.org/2000/svg"
   xmlns:sodipodi="http://sodipodi.sourceforge.net/DTD/sodipodi-0.dtd"
   xmlns:inkscape="http://www.inkscape.org/namespaces/inkscape"
   width="190.50002mm"
   height="42.178841mm"
   viewBox="0 0 190.50002 42.178841"
   version="1.1"
   id="svg8"
   inkscape:version="0.92.4 (33fec40, 2019-01-16)"
   sodipodi:docname="sales-city-logo-no-bg.svg">
  <defs
     id="defs2" />
  <sodipodi:namedview
     id="base"
     pagecolor="#ffffff"
     bordercolor="#666666"
     borderopacity="1.0"
     inkscape:pageopacity="0.0"
     inkscape:pageshadow="2"
     inkscape:zoom="0.35"
     inkscape:cx="319.99998"
     inkscape:cy="208.27946"
     inkscape:document-units="mm"
     inkscape:current-layer="g18"
     showgrid="false"
     fit-margin-top="0"
     fit-margin-left="0"
     fit-margin-right="0"
     fit-margin-bottom="0"
     inkscape:window-width="1317"
     inkscape:window-height="707"
     inkscape:window-x="49"
     inkscape:window-y="25"
     inkscape:window-maximized="1" />
  <metadata
     id="metadata5">
    <rdf:RDF>
      <cc:Work
         rdf:about="">
        <dc:format>image/svg+xml</dc:format>
        <dc:type
           rdf:resource="http://purl.org/dc/dcmitype/StillImage" />
        <dc:title></dc:title>
      </cc:Work>
    </rdf:RDF>
  </metadata>
  <g
     inkscape:label="Layer 1"
     inkscape:groupmode="layer"
     id="layer1"
     transform="translate(-21.166672,-161.76177)">
    <g
       id="g18"
       transform="matrix(0.26458333,0,0,0.26458333,-154.21428,-99.119038)">
      <path
         inkscape:connector-curvature="0"
         id="rect3319"
         d="m 1194.7118,986.00641 c -14.9092,0 -31.0143,3.9986 -48.2955,12.018 -17.2811,8.01929 -32.0788,17.56899 -44.3902,28.63799 -16.3776,14.7962 -24.5619,29.7679 -24.5619,44.9031 0,7.7934 2.3116,14.4516 6.9426,19.9861 8.4711,9.9394 21.1759,14.9107 38.1183,14.9107 13.2149,0 27.4011,-2.8784 42.5362,-8.6388 12.6346,-4.9029 22.8037,-11.0254 30.7944,-18.211 -0.4517,0.5648 -0.6837,1.0379 -0.6837,1.4332 0,1.2424 0.5089,1.4744 1.5252,0.6837 1.0166,-0.7906 2.8195,-2.3748 5.4173,-4.7466 2.7108,-2.372 4.6877,-4.0721 5.9301,-5.0886 -3.5014,4.179 -5.987,7.4633 -7.4553,9.8352 -1.4684,2.372 -2.1958,5.5851 -2.1958,9.6513 0,2.146 0.9593,4.1229 2.8795,5.9301 2.0331,1.8071 5.0854,2.7086 9.1516,2.7086 3.2755,0 7.448,-1.3522 12.5307,-4.063 5.1957,-2.8237 9.6582,-5.7601 13.3855,-8.8097 3.7273,-3.0496 8.3058,-6.9454 13.7273,-11.6892 0.2255,-0.2256 0.342,-0.4578 0.342,-0.6838 0,-1.6942 -0.7407,-1.855 -2.209,-0.4995 -6.8899,6.2122 -13.0394,11.0095 -18.4608,14.3979 -5.3086,3.3885 -9.1596,5.0754 -11.5315,5.0754 -2.259,0 -3.3793,-1.4681 -3.3793,-4.4048 0,-2.9366 1.5262,-8.0107 4.5758,-15.2394 3.1626,-7.3417 7.0583,-13.3884 11.6893,-18.1322 0.3386,-0.4517 0.1649,-0.8445 -0.513,-1.1834 -0.6778,-0.4517 -1.7531,-0.6837 -3.2215,-0.6837 -1.3554,0 -3.1583,0.5669 -5.4173,1.6962 -2.146,1.1295 -6.2737,4.6905 -12.373,10.6768 -4.6265,4.6266 -6.9028,6.7108 -9.0332,8.6387 0.3656,-0.589 0.6046,-1.1188 0.6046,-1.5252 0,-0.5648 -0.2767,-0.8415 -0.8415,-0.8415 -0.1131,0 -0.4026,0.103 -0.8547,0.3285 -8.5841,7.0028 -17.1612,12.2639 -25.7453,15.7653 -1.196,0.4942 -2.5079,0.9396 -3.7737,1.407 v -33.4505 l -9.2699,-2.0907 v -8.3626 l -0.7758,-0.171 c 2.4622,-0.6936 5.1042,-1.4822 8.389,-2.5772 7.9064,-2.7107 15.756,-6.0398 23.5494,-9.993 7.9064,-3.9532 14.6357,-8.6925 20.1702,-14.227 5.6474,-5.6474 8.4678,-11.2433 8.4678,-16.7778 0,-3.95319 -1.4681,-7.28229 -4.4048,-9.99309 -5.0827,-4.405 -12.1917,-6.6007 -21.3405,-6.6007 z m -407.33583,2.7086 c -7.90639,0 -17.50095,2.1957 -28.79578,6.6007 -11.18193,4.405 -21.51709,10.62559 -31.0048,18.64499 -9.48772,7.9064 -14.24009,15.698 -14.24009,23.3785 0,4.0661 1.70007,7.672 5.08858,10.8346 3.5014,3.1625 8.47257,6.054 14.91067,8.6518 6.55101,2.5979 9.99607,4.0081 10.33496,4.234 4.29203,2.5978 6.4297,5.5341 6.4297,8.8096 0,3.1626 -1.51299,6.099 -4.5626,8.8097 -2.93664,2.5978 -6.22093,4.9095 -9.83529,6.9426 -3.50141,1.9201 -7.674,3.6202 -12.53079,5.0886 -4.74383,1.4682 -12.08472,2.2538 -22.02416,2.3667 -6.66398,0 -13.67008,-0.7855 -21.01171,-2.3667 -7.3417,-1.5814 -13.09845,-4.2409 -17.27751,-7.9682 2.03305,7.7935 7.33908,13.4922 15.92313,17.1065 8.58412,3.7273 17.16124,5.6014 25.7453,5.6014 4.74382,0 10.73249,-0.6247 17.96123,-1.8671 7.0028,-1.2424 13.55818,-3.3933 19.6574,-6.4429 6.21217,-3.1625 10.83549,-7.1164 13.8851,-11.8602 1.92015,-3.0496 2.89274,-6.2047 2.89274,-9.4803 0,-7.4546 -4.52052,-13.4433 -13.55637,-17.9612 -1.69421,-0.7907 -4.41179,-1.924 -8.13912,-3.3924 -3.72727,-1.5813 -6.99836,-3.2234 -9.8221,-4.9176 -3.27554,-1.8072 -4.80166,-4.1188 -4.57579,-6.9426 0.45173,-3.6143 5.08824,-9.0363 13.89823,-16.265 8.81005,-7.3417 18.28861,-13.7231 28.45398,-19.1446 2.71078,-1.5813 6.27176,-3.2682 10.67675,-5.0754 2.71078,-1.0166 5.02247,-1.8152 6.94262,-2.37999 2.03305,-0.5648 4.18391,-0.8415 6.44289,-0.8415 2.25898,0 3.84306,0.7276 4.74665,2.19579 -11.06896,7.6806 -19.15046,15.8201 -24.23312,24.4042 -3.50147,5.8733 -5.24638,10.8445 -5.24638,14.9107 0,4.518 1.74491,8.1238 5.24638,10.8346 v -1.0125 c 0,-3.8402 1.64211,-8.2448 4.91758,-13.2145 3.38851,-5.0827 7.28428,-9.6611 11.68927,-13.7273 11.97256,-11.069 18.12206,-18.3518 18.46089,-21.8532 v -1.52529 c 0,-3.5014 -1.52618,-6.2058 -4.57579,-8.126 -3.0496,-2.033 -7.33813,-3.0505 -12.87265,-3.0505 z m 399.36763,2.3668 c 4.0662,0 7.788,0.6826 11.1764,2.038 3.5015,1.3554 5.2596,3.783 5.2596,7.28449 0,5.4215 -4.4625,11.6869 -13.3855,18.8027 -8.9229,7.1158 -18.7494,13.1044 -29.4795,17.9612 -3.59,1.6041 -6.7736,2.8436 -9.7695,3.9052 v -7.5737 l -34.6207,-7.7972 -1.9592,0.9467 v 71.1611 c -0.9091,-0.1501 -1.8436,-0.247 -2.735,-0.4342 v -69.3992 l -1.946,0.9599 v 67.966 c -0.9269,-0.2255 -1.8278,-0.5096 -2.7349,-0.7758 v -65.8622 l -1.9592,0.9467 v 64.3632 c -0.9288,-0.307 -1.8275,-0.6742 -2.735,-1.0256 v -62.0096 l -1.3148,0.6443 c 1.2957,-1.3234 2.6031,-2.6483 4.0367,-3.9841 11.0689,-10.2784 24.2245,-19.2034 39.4726,-26.7709 15.248,-7.56759 29.479,-11.34739 42.694,-11.34739 z m -273.61274,14.39789 c -3.0496,0.1131 -6.9455,1.0724 -11.6893,2.8796 -4.7438,1.8071 -8.4657,3.7261 -11.1764,5.7591 -0.5649,0.5648 -0.7387,1.0287 -0.513,1.3675 0.2262,0.3387 1.8101,-0.2275 4.7467,-1.6961 2.5978,-1.4684 3.8921,-1.0177 3.8921,1.3543 0,1.0165 -0.5669,2.6006 -1.6963,4.7467 -6.325,11.0689 -15.0761,23.8766 -26.2581,38.4469 -6.0992,8.1324 -11.7979,14.353 -17.10646,18.6451 -0.67773,0.5648 -1.01245,1.0734 -1.01245,1.5252 0,2.4848 3.27109,0.2181 9.82211,-6.7848 -3.6144,7.1158 -5.41732,13.2204 -5.41732,18.3031 0,2.8237 0.90152,5.3094 2.70872,7.4554 1.8071,2.146 5.0203,3.2214 9.6511,3.2214 5.4216,0 11.2943,-2.1509 17.6194,-6.4429 6.0951,-4.1359 13.7948,-10.987 22.9315,-20.2622 -2.0664,4.0578 -3.1163,8.4384 -3.1163,13.1487 0,4.518 1.5842,8.079 4.7467,10.6768 3.2755,2.4849 7.68,3.7211 13.2145,3.7211 5.6474,0 12.4796,-2.0928 20.499,-6.2719 2.5978,-1.3554 5.9849,-3.6671 10.1639,-6.9426 4.1791,-3.3884 6.9416,-5.7001 8.2969,-6.9425 1.4683,-1.3554 4.2887,-3.957 8.4678,-7.7972 0.6777,-0.5649 1.0256,-1.2343 1.0256,-2.0249 0,-1.2425 -0.6826,-1.1976 -2.038,0.1575 -5.8734,5.6475 -12.8795,11.3013 -21.0118,16.9488 -8.1323,5.5345 -14.8485,8.2968 -20.1571,8.2968 -3.0496,0 -5.2004,-0.9014 -6.4428,-2.7086 -1.1295,-1.9201 -1.6831,-3.955 -1.6831,-6.101 0,-5.6474 2.7045,-11.7389 8.1259,-18.29 4.405,-5.3086 8.9835,-9.0435 13.7274,-11.1896 2.146,-1.0165 4.1809,-1.5252 6.101,-1.5252 4.0661,0 6.0879,1.7001 6.0879,5.0885 0,3.3885 -2.9812,6.7176 -8.9675,9.9931 -6.0992,3.1626 -11.4183,4.7468 -15.9363,4.7468 -0.7906,-10e-5 -1.4022,0.1158 -1.854,0.342 -0.4517,0.1131 -0.6254,0.3319 -0.513,0.6705 0.2262,0.3386 1.3014,0.513 3.2215,0.513 4.9697,0 10.2178,-1.3074 15.7522,-3.9052 5.6474,-2.7108 9.4852,-5.8079 11.5184,-9.3094 1.0165,-1.8071 1.5252,-3.4493 1.5252,-4.9176 0,-1.5813 -0.4511,-3.0495 -1.3543,-4.4049 -2.146,-2.7107 -6.3766,-4.0629 -12.7017,-4.0629 -9.3748,0 -18.3578,3.503 -26.9418,10.5058 -3.2981,2.6472 -5.9504,5.4995 -7.9814,8.5467 -0.067,-0.247 -0.2006,-0.4207 -0.4732,-0.4207 -0.4518,-0.1131 -1.7592,0.9625 -3.9052,3.2215 -2.1461,2.146 -6.3187,5.707 -12.5308,10.6768 -6.2122,4.9697 -11.2994,8.1828 -15.2526,9.6511 -3.8403,1.4684 -6.6606,2.2091 -8.4678,2.2091 -3.0496,0 -4.5757,-1.5262 -4.5757,-4.5758 0,-1.5813 0.3924,-3.5582 1.1833,-5.9301 3.1626,-9.0359 10.5615,-21.1741 22.1951,-36.4222 1.6942,-2.146 6.3887,-7.4071 14.0692,-15.7653 7.7935,-8.4711 12.4748,-14.1119 14.0561,-16.9356 1.6942,-2.8238 2.5508,-5.0906 2.5508,-6.7848 0,-2.9367 -2.3828,-4.4048 -7.1266,-4.4048 z m 390.88664,17.6194 c -2.9366,0 -5.9758,0.4059 -9.1384,1.1965 -3.1626,0.6777 -5.1974,1.5212 -6.101,2.5377 -0.9036,1.0165 -2.153,2.6587 -3.7343,4.9176 -1.4683,2.1461 -3.4452,5.0824 -5.9301,8.8097 -2.4848,3.7273 -4.5645,6.8245 -6.2588,9.3093 -1.3554,0.1131 -3.4482,0.5635 -6.272,1.3544 -2.7108,0.6777 -4.8036,1.8691 -6.2719,3.5633 -1.3554,1.5812 -1.9221,2.9335 -1.6962,4.063 0.3386,1.1294 0.8476,2.0309 1.5252,2.7086 0.7907,0.6777 2.2589,0.62 4.4049,-0.171 -3.0496,3.7273 -8.6904,9.2073 -16.9357,16.436 -0.9035,0.7906 -1.3543,1.3574 -1.3543,1.6962 0,0.3386 0.2188,0.7316 0.6706,1.1834 0.3386,0.3386 0.9635,0.061 1.8671,-0.8416 l 3.0505,-2.8795 c -2.146,5.3085 -3.2215,9.887 -3.2215,13.7273 0,8.0194 3.7799,12.0179 11.3474,12.0179 5.5346,0 11.5812,-2.3696 18.1322,-7.1135 6.664,-4.8567 14.8483,-12.3715 24.5619,-22.5369 0.9036,-0.7907 1.1935,-1.5182 0.8547,-2.1959 -0.3387,-0.6777 -1.0795,-0.4012 -2.209,0.8415 -6.0993,6.0993 -13.2661,12.2619 -21.5114,18.4741 -6.3251,4.8568 -11.2384,7.2844 -14.7398,7.2844 -3.2755,0 -4.9176,-1.9769 -4.9176,-5.9301 0,-1.4683 0.3925,-3.2713 1.1833,-5.4173 2.372,-7.4546 8.1419,-17.0623 17.2907,-28.809 2.8237,-0.4517 5.3673,-0.6705 7.6263,-0.6705 5.1957,0 8.9755,1.1783 11.3474,3.5502 0.7906,0.7906 1.4602,0.9646 2.0249,0.513 0.6777,-0.4517 0.5749,-1.4692 -0.3286,-3.0506 -2.3718,-3.6143 -7.401,-6.0419 -15.0816,-7.2844 6.4381,-7.6804 12.0789,-13.8431 16.9357,-18.474 4.8568,-4.6308 7.2844,-7.2193 7.2844,-7.7841 0,-0.6776 -1.4682,-1.0255 -4.4049,-1.0255 z m -61.9176,10.1639 c -3.0496,0 -5.4772,1.0755 -7.2844,3.2215 -1.8072,2.146 -2.8246,4.1809 -3.0505,6.101 -0.2262,1.9202 0.2828,3.3883 1.5253,4.4049 1.2424,1.0165 2.8265,1.3064 4.7467,0.8546 2.033,-0.5648 3.836,-1.6981 5.4173,-3.3924 1.5812,-1.8072 2.4828,-3.6681 2.7086,-5.5881 0.2255,-2.0332 -0.1669,-3.4433 -1.1834,-4.234 -1.0165,-0.9036 -1.976,-1.3675 -2.8796,-1.3675 z m -142.2039,0.5655 v 27.3495 l -4.6678,-1.0519 -1.0519,0.513 v 30.229 c -0.5197,-0.3386 -0.9949,-0.7239 -1.4859,-1.0913 v -28.4277 l -1.0518,0.513 v 27.1127 c -0.5163,-0.4261 -1.0045,-0.8796 -1.4859,-1.3411 v -25.0484 l -1.0519,0.513 v 23.4837 c -0.5204,-0.5575 -1.0109,-1.1457 -1.4858,-1.7489 v -21.0117 l -1.0519,0.513 v 19.1315 c -0.091,-0.1319 -0.1999,-0.2471 -0.2894,-0.381 -2.7108,-4.0661 -4.063,-8.8186 -4.063,-14.2401 0,-11.1381 5.9179,-22.8073 17.6851,-35.0152 z m 278.7276,4.1813 c -1.4684,0 -2.7046,0.1737 -3.7211,0.513 -2.7107,0.7907 -5.879,5.3692 -9.4934,13.7274 -4.0662,5.9862 -8.9794,12.4256 -14.7398,19.3155 -12.0855,14.6834 -20.3278,22.0242 -24.7328,22.0242 -0.9036,0 -1.3543,-0.5669 -1.3543,-1.6962 0,-1.1295 0.8435,-2.9456 2.5377,-5.4304 l 5.4304,-7.4554 c 1.9202,-2.4849 3.4332,-4.5646 4.5627,-6.2588 1.2424,-1.8072 2.3178,-3.7841 3.2214,-5.9301 0.9036,-2.259 1.3543,-4.2939 1.3543,-6.101 0,-1.8072 -0.3346,-3.2754 -1.0124,-4.4049 -1.4683,-3.0496 -4.2307,-4.5757 -8.2969,-4.5757 -3.6144,0 -6.8406,1.0754 -9.6644,3.2214 -2.8236,2.146 -6.7775,5.8099 -11.8601,11.0056 -5.0827,5.1956 -8.3538,8.4218 -9.8222,9.6643 -1.4683,1.1295 -2.151,2.0889 -2.038,2.8796 0,0.7906 0.5089,0.7906 1.5252,0 1.1295,-0.9036 4.4586,-3.956 9.9931,-9.1516 5.5345,-5.1956 9.6622,-8.8147 12.373,-10.8478 2.8237,-2.033 4.9166,-3.0504 6.2719,-3.0504 1.3554,0 2.025,0.5089 2.025,1.5252 0,1.0166 -0.6699,2.2659 -2.025,3.7343 -9.9394,11.5207 -15.6962,19.5443 -17.2774,24.0622 -0.7907,2.5978 -1.1966,4.8515 -1.1966,6.7717 0,5.4214 2.8915,8.1259 8.6519,8.1259 7.5676,0 18.3984,-8.6931 32.5169,-26.0872 3.6144,-4.6309 6.7247,-8.9194 9.3225,-12.8726 -10.5042,20.3307 -19.648,35.74 -27.4415,46.2442 -7.6805,10.6172 -15.9808,19.1494 -24.9038,25.5875 -8.81,6.551 -17.4582,9.8222 -25.9293,9.8222 -6.4381,0 -12.0788,-1.9769 -16.9356,-5.9301 -4.9698,-3.9532 -8.0221,-9.0853 -9.1516,-15.4104 0,-0.4518 -0.1737,-0.7866 -0.513,-1.0125 -0.3386,-0.2262 -0.616,-0.2262 -0.8415,0 -0.2262,0.2262 -0.342,0.6187 -0.342,1.1834 1.3554,8.2453 4.9744,14.3367 10.8478,18.2899 5.7603,3.9532 12.9272,5.9301 21.5113,5.9301 8.5841,0 16.9424,-2.1376 25.0747,-6.4297 8.2453,-4.292 15.3674,-9.5981 21.3536,-15.9232 5.9863,-6.3251 11.0603,-13.1124 15.2395,-20.3411 4.179,-7.2287 7.1734,-13.5522 8.9806,-18.9737 1.8071,-5.4215 3.726,-11.3522 5.7591,-17.7902 2.146,-6.4382 3.9041,-11.1195 5.2595,-14.0561 2.259,-4.7439 5.0214,-7.1135 8.2969,-7.1135 0.2255,0 0.6766,0.061 1.3543,0.171 0.7906,0 1.6342,-0.1737 2.5377,-0.513 1.0166,-0.4518 1.5253,-1.0185 1.5253,-1.6962 0,-0.6777 -0.3346,-1.6371 -1.0124,-2.8796 -0.6778,-1.2424 -1.7532,-1.8671 -3.2215,-1.8671 z m -247.5519,2.8139 v 3.4581 c -0.014,0.067 -0.067,0.095 -0.067,0.171 0,0.061 0.061,0.1016 0.067,0.1575 v 53.9626 c -0.769,0.047 -1.4953,0.075 -2.2221,0.105 v -56.7896 l 2.2221,-1.065 z m -3.8,1.8408 v 56.0927 c -0.5318,0.013 -1.1888,0.079 -1.6962,0.079 -0.1757,0 -0.3379,-0.027 -0.513,-0.027 v -55.067 l 2.209,-1.0782 z m -3.7868,1.8408 v 54.2255 c -0.7456,-0.02 -1.474,-0.076 -2.209,-0.1184 v -53.0291 l 2.209,-1.0782 z m -112.6455,1.1308 c -1.8072,0 -4.5116,0.9015 -8.126,2.7087 -3.61434,1.6942 -6.88544,3.7871 -9.82214,6.2719 -2.8237,2.372 -7.0094,6.2098 -12.544,11.5184 -5.5344,5.1956 -9.765,9.0334 -12.7016,11.5183 -0.7907,0.6777 -1.0806,1.4184 -0.8547,2.209 0.2262,0.7906 0.8506,0.7906 1.8671,0 1.0165,-0.7906 4.0109,-3.4503 8.9806,-7.9681 4.9698,-4.518 9.6062,-8.5298 13.8982,-12.0312 4.2921,-3.6144 8.58074,-6.5507 12.87274,-8.8097 4.405,-2.3719 7.3993,-3.5502 8.9806,-3.5502 1.5813,0 2.7016,0.1609 3.3793,0.4996 -2.8237,0.7906 -5.9789,2.8834 -9.4803,6.2719 -3.3885,3.3885 -5.932,6.4408 -7.62634,9.1515 -1.5813,2.7108 -3.6161,6.3879 -6.101,11.0187 -2.3719,4.518 -5.1343,8.8646 -8.2969,13.0436 -4.292,5.6474 -9.3212,8.4678 -15.0816,8.4678 -4.631,0 -7.96,-2.2537 -9.9931,-6.7715 -0.1131,-0.4518 -0.3447,-0.6838 -0.6837,-0.6838 -0.4518,0 -0.6706,0.1158 -0.6706,0.342 0,0.2262 0.061,0.3871 0.171,0.4995 2.7108,8.2453 8.8603,12.373 18.4609,12.373 9.7136,0 19.3661,-3.3871 28.96674,-10.164 4.631,-3.2755 8.4819,-6.2119 11.5316,-8.8097 3.1625,-2.7107 5.8089,-5.1384 7.955,-7.2844 2.146,-2.146 3.2214,-3.3374 3.2214,-3.5633 v -0.8415 c -0.4518,-0.6777 -1.1925,-0.5615 -2.209,0.342 -4.7439,4.8568 -10.2107,9.3641 -16.4228,13.5432 -6.0993,4.0661 -10.61974,6.6677 -13.55644,7.7972 3.50144,-3.9532 6.37984,-9.4332 8.63874,-16.436 2.372,-7.0028 4.4648,-13.1523 6.272,-18.4609 1.9201,-5.3085 4.3477,-8.5928 7.2844,-9.8352 -1.0165,-1.5813 -3.7921,-2.3668 -8.31,-2.3668 z m -200.61087,5.0886 c -3.50141,0 -7.12042,0.6112 -10.84768,1.854 -8.35826,2.4848 -15.36436,6.7285 -21.01178,12.7148 -7.4546,8.0194 -11.17641,16.2037 -11.17641,24.5619 0,2.9367 1.13336,5.4223 3.39234,7.4554 2.37194,1.9201 5.19232,2.8796 8.46779,2.8796 3.27554,0 7.79605,-1.687 13.55644,-5.0755 5.87328,-3.5014 11.34007,-8.4146 16.42279,-14.7397 -2.03305,4.8568 -3.03736,8.4626 -3.03736,10.8346 0,2.3719 0.84348,4.4648 2.5377,6.2719 1.80718,1.6943 4.00288,2.5377 6.60069,2.5377 8.80998,0 22.93818,-9.1438 42.36531,-27.4414 0.4518,-0.4518 0.6706,-0.8446 0.6706,-1.1834 v -0.6838 c -0.3387,-0.7906 -1.06642,-0.6167 -2.19588,0.513 -9.60068,9.0358 -18.36489,15.81 -26.27128,20.328 -3.9532,2.146 -6.83154,3.2214 -8.63872,3.2214 -1.69422,0 -2.53769,-1.0174 -2.53769,-3.0505 0,-2.0331 0.9594,-4.5187 2.87955,-7.4553 2.03305,-2.9367 3.67522,-5.2484 4.91765,-6.9426 1.35538,-1.6943 2.64958,-3.2784 3.892,-4.7467 1.24249,-1.4683 2.25992,-2.7177 3.05055,-3.7343 0.90359,-1.0165 1.35431,-1.918 1.35431,-2.7086 0,-0.7907 -0.1158,-1.3573 -0.342,-1.6962 -1.46835,-2.4849 -3.89597,-3.7211 -7.28441,-3.7211 -0.90359,-2.7108 -3.04132,-5.0224 -6.42976,-6.9426 -3.27553,-2.033 -6.72059,-3.0505 -10.33496,-3.0505 z m 335.80647,1.6042 v 44.377 c -0.6039,0.1172 -1.1752,0.2545 -1.7882,0.3683 v -43.8775 z m -3.0636,1.4858 v 43.5092 c -0.6456,0.095 -1.1618,0.1246 -1.7883,0.2101 v -42.8518 l 0.8547,-0.4208 0.9336,-0.447 z m -3.0637,1.4857 v 42.3917 c -0.6133,0.08 -1.1941,0.1394 -1.7882,0.2101 v -41.7342 l 1.7882,-0.8679 z M 817.85486,1055.8 c 3.72727,0 5.58818,1.2493 5.58818,3.7342 0,2.3719 -2.65955,6.3257 -7.96813,11.8603 -1.58126,1.5812 -3.50019,3.4421 -5.75917,5.5882 -2.25898,2.146 -3.55317,3.3822 -3.89201,3.7211 -5.98631,5.9862 -10.84155,9.998 -14.56888,12.0311 -3.6143,2.033 -6.21588,3.0505 -7.7972,3.0505 -1.92015,0 -2.87955,-1.1914 -2.87955,-3.5633 0,-4.518 4.11456,-11.6269 12.35979,-21.3405 5.19569,-6.0992 10.67561,-10.3878 16.43599,-12.8726 3.27553,-1.4684 6.10904,-2.209 8.48098,-2.209 z"
         style="opacity:1;fill:#1a1a1a;fill-opacity:1;stroke:none;stroke-width:5.24300003;stroke-linecap:round;stroke-linejoin:round;stroke-miterlimit:4;stroke-dasharray:none;stroke-opacity:1" />
    </g>
  </g>
</svg>
